<svg width="24" height="24" viewBox="0 0 24 24" fill="none" xmlns="http://www.w3.org/2000/svg">
<path d="M17.9646 6.83551C17.7564 6.28892 17.456 5.86016 16.9874 5.55416C16.6091 5.30718 16.1573 5.16475 15.6368 5.07566C15.4587 5.04517 15.2689 5.02037 15.067 5H17.9034L17.9646 6.83551ZM13.1328 18.5517C13.2865 18.6662 13.4659 18.7471 13.6623 18.808H10.3376C10.5336 18.747 10.7128 18.6659 10.8663 18.5511C11.3523 18.1876 11.3916 17.637 11.3916 17.1435V5.403V5H12.6056V5.403V17.1435C12.6056 17.6371 12.6448 18.1883 13.1328 18.5517ZM6.10547 5H8.94015C8.73822 5.02037 8.54847 5.04516 8.3704 5.07563C7.84993 5.1647 7.39829 5.30708 7.02022 5.55399C6.55195 5.85982 6.25178 6.2883 6.04358 6.8344L6.10547 5Z" stroke="black"/>
</svg>
